<?xml version="1.0" standalone="no"?>
<!DOCTYPE svg PUBLIC "-//W3C//DTD SVG 20010904//EN"
 "http://www.w3.org/TR/2001/REC-SVG-20010904/DTD/svg10.dtd">
<svg version="1.0" xmlns="http://www.w3.org/2000/svg"
 width="900.000000pt" height="242.000000pt" viewBox="0 0 900.000000 242.000000"
 preserveAspectRatio="xMidYMid meet">

<g transform="translate(0.000000,242.000000) scale(0.100000,-0.100000)"
fill="#000000" stroke="none">
<path d="M4200 2401 c-83 -26 -186 -114 -216 -186 -19 -46 -18 -130 2 -165 58
-98 233 -82 346 32 78 77 109 188 73 257 -28 56 -127 85 -205 62z"/>
<path d="M785 2340 c-225 -35 -414 -149 -492 -296 -30 -56 -161 -409 -236
-634 -84 -254 -65 -357 78 -424 125 -60 393 -72 570 -27 116 30 254 101 319
164 55 54 122 175 165 297 10 30 22 63 26 73 7 16 -8 17 -233 17 l-239 0 -38
-107 c-21 -60 -51 -134 -66 -165 -25 -49 -34 -59 -69 -69 -28 -9 -49 -9 -68
-3 -24 9 -27 15 -25 49 1 39 239 724 283 817 12 25 30 54 40 63 24 22 91 30
120 15 29 -15 24 -40 -44 -229 l-53 -146 235 -3 c182 -2 237 1 244 10 4 7 27
69 49 138 41 124 58 232 45 284 -16 63 -99 125 -216 161 -66 20 -304 29 -395
15z"/>
<path d="M1630 1973 c-102 -191 -237 -444 -300 -562 -64 -119 -144 -269 -179
-333 l-62 -118 246 0 246 0 56 120 56 120 87 0 88 0 -29 -112 c-16 -62 -29
-116 -29 -120 0 -5 110 -8 245 -8 195 0 245 3 245 13 0 7 13 98 30 203 16 104
61 396 100 649 38 253 72 468 74 478 4 16 -18 17 -342 17 l-347 0 -185 -347z
m384 -208 c-29 -126 -56 -249 -60 -272 l-6 -43 -84 0 -84 0 46 93 c88 175 236
458 239 455 1 -2 -21 -106 -51 -233z"/>
<path d="M2851 2298 c-5 -13 -84 -234 -176 -493 -92 -259 -196 -551 -231 -649
-35 -99 -64 -183 -64 -188 0 -5 106 -7 237 -6 l236 3 97 270 96 270 165 6
c317 13 419 77 509 326 20 56 21 67 10 114 -18 74 -14 164 10 233 23 68 20 74
-60 100 -87 29 -178 36 -498 36 l-322 0 -9 -22z m514 -228 c22 -19 19 -56 -15
-149 -42 -114 -56 -139 -93 -161 -32 -20 -132 -29 -125 -12 2 5 30 84 63 176
l59 168 48 -4 c26 -3 54 -11 63 -18z"/>
<path d="M4662 2260 c-7 -34 -30 -94 -52 -135 l-38 -75 94 0 c70 0 94 -3 94
-13 0 -7 -85 -251 -189 -542 l-189 -530 236 -3 c129 -1 237 -1 239 2 2 2 67
181 144 397 77 217 164 459 192 539 l53 145 142 3 143 3 10 27 c6 15 28 75 49
135 l38 107 -477 0 -477 0 -12 -60z"/>
<path d="M5767 2298 c-8 -13 -71 -129 -139 -258 -218 -408 -498 -932 -539
-1007 l-40 -73 106 0 c58 0 105 -1 105 -2 0 -2 11 -66 24 -144 21 -122 34
-165 100 -329 74 -184 78 -190 152 -271 41 -46 113 -113 159 -149 l84 -65 117
85 c131 96 163 117 388 255 87 54 179 106 205 115 25 10 69 35 96 55 28 21 69
47 92 59 22 11 52 34 65 50 12 17 118 89 233 161 203 127 255 164 255 182 0
18 -28 4 -203 -100 -100 -60 -294 -173 -432 -252 -137 -79 -346 -198 -463
-266 -116 -68 -242 -135 -277 -150 -79 -31 -89 -29 -208 47 -76 49 -86 59
-142 148 -46 74 -60 106 -62 141 -2 25 -18 88 -37 141 -19 52 -39 131 -46 175
-6 43 -13 87 -16 97 -5 15 4 17 98 17 l103 0 54 120 55 120 89 0 c79 0 88 -2
83 -17 -3 -10 -14 -56 -26 -103 -12 -47 -23 -93 -26 -102 -5 -17 11 -18 239
-18 l244 0 27 168 c15 92 29 191 33 220 6 52 6 52 42 53 46 1 79 6 168 25 40
9 78 14 84 12 7 -2 27 -44 44 -93 27 -73 37 -91 56 -95 14 -4 78 11 158 37
l135 43 23 -22 c13 -12 23 -31 23 -42 0 -56 24 -98 108 -192 108 -121 223
-214 264 -214 16 0 59 -12 95 -26 58 -23 73 -25 140 -19 75 7 91 14 37 16 -16
1 -77 17 -136 37 -146 47 -272 130 -344 226 -55 73 -60 82 -92 166 -63 164
-28 335 108 535 87 127 221 230 323 246 167 28 424 -32 579 -135 65 -44 83
-63 126 -131 28 -44 62 -114 77 -155 25 -67 28 -89 29 -215 1 -122 -2 -148
-22 -207 -13 -38 -28 -68 -34 -68 -6 0 -50 -38 -97 -83 -65 -62 -108 -94 -170
-125 -93 -47 -92 -51 7 -23 55 15 192 87 273 143 22 15 91 -13 217 -88 96 -57
214 -104 263 -104 45 0 98 101 150 285 38 134 43 164 47 282 3 109 0 149 -18
230 -33 149 -58 219 -118 329 -60 110 -93 141 -139 129 -44 -11 -261 -104
-372 -160 l-106 -53 -45 40 c-107 95 -383 189 -508 173 -102 -13 -268 -59
-299 -82 l-31 -24 -47 33 c-25 18 -74 69 -108 113 -93 120 -127 155 -151 155
-27 0 -153 -93 -237 -174 -74 -73 -110 -134 -173 -298 -49 -127 -63 -209 -47
-278 5 -24 9 -45 8 -46 -6 -5 -260 -34 -264 -30 -4 4 111 771 124 824 l5 22
-346 0 -346 0 -13 -22z m224 -469 c-22 -90 -49 -212 -62 -271 l-22 -108 -84 0
-84 0 110 213 c153 294 175 336 178 333 2 -2 -14 -77 -36 -167z m2727 122 c48
-25 108 -111 133 -193 38 -124 51 -389 25 -503 -8 -33 -17 -86 -21 -117 -6
-53 -10 -60 -58 -102 -49 -42 -53 -44 -79 -30 -17 9 -35 11 -48 6 -16 -6 -61
5 -156 38 -74 26 -137 50 -141 54 -4 4 11 44 34 89 l41 82 -8 157 -8 156 -45
94 c-25 51 -54 105 -64 120 -12 19 -14 31 -7 38 7 7 310 115 362 129 1 1 20
-8 40 -18z"/>
<path d="M4237 1793 c-123 -51 -262 -55 -356 -10 l-50 24 -14 -41 c-25 -69
-275 -770 -282 -788 -7 -17 8 -18 231 -18 l239 0 105 297 c58 164 126 357 152
430 26 73 44 132 40 132 -4 -1 -33 -12 -65 -26z"/>
</g>
</svg>
